<svg width="16" height="16" viewBox="0 0 16 16" fill="none" xmlns="http://www.w3.org/2000/svg">
<path d="M4.85 0.499512H11.15C13.55 0.499512 15.5 2.44951 15.5 4.84951V11.1495C15.5 12.3032 15.0417 13.4096 14.2259 14.2254C13.4101 15.0412 12.3037 15.4995 11.15 15.4995H4.85C2.45 15.4995 0.5 13.5495 0.5 11.1495V4.84951C0.5 3.69582 0.958302 2.58938 1.77409 1.7736C2.58987 0.957814 3.69631 0.499512 4.85 0.499512ZM4.7 1.99951C3.98392 1.99951 3.29716 2.28398 2.79081 2.79032C2.28446 3.29667 2 3.98343 2 4.69951V11.2995C2 12.792 3.2075 13.9995 4.7 13.9995H11.3C12.0161 13.9995 12.7028 13.715 13.2092 13.2087C13.7155 12.7024 14 12.0156 14 11.2995V4.69951C14 3.20701 12.7925 1.99951 11.3 1.99951H4.7ZM11.9375 3.12451C12.1861 3.12451 12.4246 3.22328 12.6004 3.3991C12.7762 3.57491 12.875 3.81337 12.875 4.06201C12.875 4.31065 12.7762 4.54911 12.6004 4.72492C12.4246 4.90074 12.1861 4.99951 11.9375 4.99951C11.6889 4.99951 11.4504 4.90074 11.2746 4.72492C11.0988 4.54911 11 4.31065 11 4.06201C11 3.81337 11.0988 3.57491 11.2746 3.3991C11.4504 3.22328 11.6889 3.12451 11.9375 3.12451ZM8 4.24951C8.99456 4.24951 9.94839 4.6446 10.6517 5.34786C11.3549 6.05112 11.75 7.00495 11.75 7.99951C11.75 8.99407 11.3549 9.9479 10.6517 10.6512C9.94839 11.3544 8.99456 11.7495 8 11.7495C7.00544 11.7495 6.05161 11.3544 5.34835 10.6512C4.64509 9.9479 4.25 8.99407 4.25 7.99951C4.25 7.00495 4.64509 6.05112 5.34835 5.34786C6.05161 4.6446 7.00544 4.24951 8 4.24951ZM8 5.74951C7.40326 5.74951 6.83097 5.98656 6.40901 6.40852C5.98705 6.83048 5.75 7.40277 5.75 7.99951C5.75 8.59625 5.98705 9.16855 6.40901 9.5905C6.83097 10.0125 7.40326 10.2495 8 10.2495C8.59674 10.2495 9.16903 10.0125 9.59099 9.5905C10.0129 9.16855 10.25 8.59625 10.25 7.99951C10.25 7.40277 10.0129 6.83048 9.59099 6.40852C9.16903 5.98656 8.59674 5.74951 8 5.74951Z" fill="black"/>
</svg>
