<?xml version="1.0" encoding="UTF-8"?>
<svg id="Camada_2" data-name="Camada 2" xmlns="http://www.w3.org/2000/svg" viewBox="0 0 518.96 458">
  <defs>
    <style>
      .cls-1 {
        fill: #7bc9d2;
      }

      .cls-2 {
        fill: #25b4b0;
      }

      .cls-3 {
        fill: #e94f2f;
      }
    </style>
  </defs>
  <path class="cls-2" d="m31.87,277.9c-9.52-7.17-17.22-16.53-22.14-27.39-14.13-31.2-27.42-101.38,72.18-188.53C217.65-56.8,393.39,31.68,393.39,31.68c0,0,167.26,77.01,115.71,247.81-.31,1.02-.61,2.06-.86,3.09-2.57,10.34-21.87,80.84-57.88,29.07-29.62-42.58-108.74-46.28-144.46-45.65-10.79.19-21.4,2.72-31.06,7.52-24.5,12.16-78.1,36.91-115.36,40.55-44.26,4.32-93.65-10.59-127.61-36.17Z"/>
  <path class="cls-2" d="m234.15,317.97c-.13-1.56.6-3.06,1.85-4.01,10.92-8.31,73.88-51.56,155.58-11.69,89.99,43.92,11.82,85.74,11.82,85.74,0,0-39.09,24.54-89.08-25.45,0,0-50.9-38.18-74.99-40.45,0,0-4.76.68-5.16-4.14Z"/>
  <path class="cls-3" d="m326.89,448.9c1.08,9.23-4,10.29-11.24,8.17-6.36-1.87-11.22-6.03-15.84-10.32-30.05-27.94-54.45-59.75-72.4-95.93-1.44-2.9-4.17-6.11-.75-9.32,3.09-2.9,6.63-1.35,10.1-.38,22.06,6.16,38.3,20.02,51.46,36.96,13.43,17.28,24.4,36.15,34.18,55.56,2.47,4.9,4.78,9.96,4.5,15.26Z"/>
  <g>
    <path class="cls-1" d="m351.72,41.06s-12.03,30.07-5.41,63.75c6.62,33.68-4.81,57.74-4.81,57.74,0,0,1.8-15.64-3.61-46.31s-13.23-63.1,6.92-78.76c0,0,10.13-6.74,6.92,3.58Z"/>
    <path class="cls-1" d="m324.05,65.12s4.21,34.55,0,33.81c-4.21-.74-7.49-29-7.05-33.81.44-4.81,6.27-7.26,7.05,0Z"/>
    <path class="cls-1" d="m360.4,61.68s-3.74,7.15-3.99,11.55c-.25,4.4,1.76,22.12,1.74,24.97-.02,2.84.03,11.04-.88,13.42-.91,2.39,1.07,12.14,3.27,10.38s4.57-10.41,4.35-18.69c0,0,.24-16.75-1.37-28.17-1.61-11.43-.95-14.77-.95-14.77,0,0-1.73.42-2.17,1.31Z"/>
  </g>
</svg>