<svg width="15" height="16" viewBox="0 0 15 16" fill="none" xmlns="http://www.w3.org/2000/svg">
<path d="M12.4595 2.26314C11.7876 1.54278 10.9873 0.97163 10.1052 0.582996C9.22307 0.194362 8.27689 -0.0039732 7.32182 -0.000441944C3.3201 -0.000441944 0.0586333 3.46105 0.0586333 7.70819C0.0586333 9.06946 0.395774 10.3918 1.02608 11.5586L0 15.5568L3.8478 14.4834C4.91053 15.0979 6.10518 15.4246 7.32182 15.4246C11.3235 15.4246 14.585 11.9631 14.585 7.71597C14.585 5.65463 13.8301 3.71775 12.4595 2.26314ZM7.32182 14.1178C6.2371 14.1178 5.17438 13.8067 4.24358 13.2233L4.0237 13.0832L1.73701 13.7211L2.34533 11.3564L2.19874 11.1152C1.5961 10.0939 1.27611 8.91329 1.27527 7.70819C1.27527 4.17669 3.98705 1.29859 7.31449 1.29859C8.9269 1.29859 10.444 1.96756 11.58 3.18102C12.1425 3.77528 12.5883 4.48213 12.8915 5.26059C13.1947 6.03904 13.3493 6.87363 13.3464 7.71597C13.361 11.2475 10.6492 14.1178 7.32182 14.1178ZM10.6346 9.32615C10.4514 9.23281 9.55721 8.76609 9.39596 8.69608C9.22739 8.63385 9.11013 8.60274 8.98553 8.78942C8.86094 8.98389 8.51647 9.4195 8.41386 9.54395C8.31125 9.67619 8.20131 9.69175 8.01808 9.59062C7.83486 9.49728 7.24852 9.28726 6.55958 8.63385C6.01723 8.12046 5.6581 7.49039 5.54816 7.29593C5.44555 7.10146 5.5335 7.00034 5.62878 6.89921C5.7094 6.81365 5.81201 6.67363 5.89996 6.56473C5.98791 6.45583 6.02456 6.37027 6.08319 6.24581C6.14182 6.11357 6.11251 6.00467 6.06853 5.91133C6.02456 5.81798 5.6581 4.86899 5.51152 4.48006C5.36493 4.10668 5.21102 4.15335 5.10109 4.14558H4.74929C4.62469 4.14558 4.43413 4.19225 4.26556 4.38671C4.10432 4.58118 3.63526 5.0479 3.63526 5.99689C3.63526 6.94589 4.28755 7.86377 4.3755 7.98822C4.46345 8.12046 5.6581 10.0651 7.47573 10.8974C7.90815 11.0997 8.24529 11.2164 8.50914 11.3019C8.94156 11.4497 9.33733 11.4264 9.65248 11.3797C10.0043 11.3253 10.7299 10.913 10.8765 10.4618C11.0304 10.0107 11.0304 9.62952 10.9791 9.54395C10.9278 9.45839 10.8178 9.41949 10.6346 9.32615Z" fill="black"/>
</svg>
