<svg width="30" height="29" viewBox="0 0 25 24" fill="none" xmlns="http://www.w3.org/2000/svg">
<path d="M19.6055 4.91006C18.6887 3.98399 17.5967 3.24973 16.3931 2.75011C15.1896 2.25049 13.8986 1.99552 12.5955 2.00006C7.13548 2.00006 2.68548 6.45006 2.68548 11.9101C2.68548 13.6601 3.14548 15.3601 4.00548 16.8601L2.60548 22.0001L7.85548 20.6201C9.30548 21.4101 10.9355 21.8301 12.5955 21.8301C18.0555 21.8301 22.5055 17.3801 22.5055 11.9201C22.5055 9.27006 21.4755 6.78006 19.6055 4.91006ZM12.5955 20.1501C11.1155 20.1501 9.66548 19.7501 8.39548 19.0001L8.09548 18.8201L4.97548 19.6401L5.80548 16.6001L5.60548 16.2901C4.78323 14.977 4.34662 13.4593 4.34548 11.9101C4.34548 7.37006 8.04548 3.67006 12.5855 3.67006C14.7855 3.67006 16.8555 4.53006 18.4055 6.09006C19.173 6.85402 19.7812 7.76272 20.1949 8.76348C20.6086 9.76425 20.8195 10.8372 20.8155 11.9201C20.8355 16.4601 17.1355 20.1501 12.5955 20.1501ZM17.1155 13.9901C16.8655 13.8701 15.6455 13.2701 15.4255 13.1801C15.1955 13.1001 15.0355 13.0601 14.8655 13.3001C14.6955 13.5501 14.2255 14.1101 14.0855 14.2701C13.9455 14.4401 13.7955 14.4601 13.5455 14.3301C13.2955 14.2101 12.4955 13.9401 11.5555 13.1001C10.8155 12.4401 10.3255 11.6301 10.1755 11.3801C10.0355 11.1301 10.1555 11.0001 10.2855 10.8701C10.3955 10.7601 10.5355 10.5801 10.6555 10.4401C10.7755 10.3001 10.8255 10.1901 10.9055 10.0301C10.9855 9.86006 10.9455 9.72006 10.8855 9.60006C10.8255 9.48006 10.3255 8.26006 10.1255 7.76006C9.92548 7.28006 9.71548 7.34006 9.56548 7.33006H9.08548C8.91548 7.33006 8.65548 7.39006 8.42548 7.64006C8.20548 7.89006 7.56548 8.49006 7.56548 9.71006C7.56548 10.9301 8.45548 12.1101 8.57548 12.2701C8.69548 12.4401 10.3255 14.9401 12.8055 16.0101C13.3955 16.2701 13.8555 16.4201 14.2155 16.5301C14.8055 16.7201 15.3455 16.6901 15.7755 16.6301C16.2555 16.5601 17.2455 16.0301 17.4455 15.4501C17.6555 14.8701 17.6555 14.3801 17.5855 14.2701C17.5155 14.1601 17.3655 14.1101 17.1155 13.9901Z" fill="white"/>
</svg>
